:SAMPLES-PER-SECOND 30
:FULLY-SPECIFIED
:DEGREES
69
root  5.40935 39.4489 19.3095 12.8229 -80.3169 -6.68958
RightUpLeg  -18.8316 -13.503 -10.5483
RightLeg  -1.23049 -14.7421 3.27607
RightFoot  1.84587 -1.36333 11.8635
RightToes  -1.81608e-008 0 -3.6325e-017
Spine  8.44217 -4.05428 -20.9709
Spine1  -2.51592 -7.17273 14.5321
HEad  -3.92683 -4.37079 2.83553
LeftShoulder1  -0.598487 5.27714 -27.5301
LeftArm  -11.3934 -7.07591 -47.9899
LeftForeArm  21.5198 -7.25678 -4.52311
LeftHand  0.00332462 6.95537 2.77892
RightShoulder  -0.855821 -6.11507 26.1742
RightArm  6.68934 -12.8042 44.3279
RightForeArm  15.0307 10.2191 4.17882
RightHand  -0.31069 3.20609 -4.43929
LeftUpLeg  -5.87486 12.5027 13.4875
LeftLeg  -1.48195 15.4296 -0.513415
LeftFoot  5.10404 1.76903 -12.42
LeftToes  1.81866e-011 -6.13092e-011 2.52013e-011
70
root  4.72285 39.305 18.9633 8.47147 -78.5213 -1.86472
RightUpLeg  -19.0429 -13.5772 -10.2731
RightLeg  -1.94536 -16.461 3.91007
RightFoot  2.21638 -1.45122 12.2836
RightToes  -1.81608e-008 0 -3.6325e-017
Spine  8.33457 -4.52661 -22.3248
Spine1  -2.62515 -7.97849 16.551
HEad  -3.53984 -5.15556 2.7741
LeftShoulder1  -0.652972 5.4216 -27.8395
LeftArm  -10.4421 -8.92732 -49.3102
LeftForeArm  21.9653 -5.86208 -4.76787
LeftHand  -0.00196834 6.74055 2.73289
RightShoulder  -0.893873 -6.21961 26.3113
RightArm  5.42577 -14.7985 43.2182
RightForeArm  14.8406 9.99284 3.63939
RightHand  -0.264533 3.38091 -3.75717
LeftUpLeg  -5.6844 12.1871 13.3397
LeftLeg  -1.96252 13.9283 -0.32903
LeftFoot  4.86773 1.90156 -13.5144
LeftToes  1.81866e-011 -6.13092e-011 2.52013e-011
71
root  3.98486 39.1407 18.5661 4.70212 -76.7699 2.27164
RightUpLeg  -19.5215 -14.007 -10.0573
RightLeg  -0.21314 -16.4905 4.08373
RightFoot  2.9028 -1.4542 11.7284
RightToes  -1.81608e-008 0 -3.6325e-017
Spine  8.08998 -4.90166 -22.6003
Spine1  -2.58082 -8.48633 17.3635
HEad  -3.57673 -6.18715 2.20115
LeftShoulder1  -0.610927 5.32078 -27.4083
LeftArm  -9.87687 -10.2931 -51.0816
LeftForeArm  22.7661 -4.83946 -4.82118
LeftHand  -0.0108416 7.06992 1.74425
RightShoulder  -0.964065 -6.38461 26.9003
RightArm  4.04939 -16.9674 41.9991
RightForeArm  13.2667 10.2802 3.05001
RightHand  -0.29052 2.56822 -4.43732
LeftUpLeg  -5.19522 11.8 13.2039
LeftLeg  -2.633 12.5811 -0.0769582
LeftFoot  4.6688 2.06619 -14.8249
LeftToes  1.81866e-011 -6.13092e-011 2.52013e-011
72
root  3.24245 39.0663 18.1532 3.66028 -74.8979 3.64099
RightUpLeg  -20.6435 -14.1854 -9.38641
RightLeg  3.18885 -14.9399 3.39713
RightFoot  5.43462 -1.03338 7.54542
RightToes  -1.81608e-008 0 -3.6325e-017
Spine  7.97042 -5.26149 -21.7975
Spine1  -2.542 -9.12655 18.5753
HEad  -4.30919 -6.7534 0.971893
LeftShoulder1  -0.650748 5.41994 -27.7602
LeftArm  -9.36692 -11.3667 -52.0549
LeftForeArm  23.2629 -4.28256 -4.93561
LeftHand  -0.0136899 7.2779 1.45294
RightShoulder  -0.918988 -6.28195 26.4963
RightArm  2.79803 -19.174 41.4119
RightForeArm  12.2028 10.8986 2.53877
RightHand  -0.27295 2.91139 -4.05539
LeftUpLeg  -4.01979 11.6803 13.6323
LeftLeg  -4.89775 11.1035 -0.204245
LeftFoot  5.26497 2.32787 -16.0719
LeftToes  1.81866e-011 -6.13092e-011 2.52013e-011
73
root  2.54925 39.0458 17.7351 3.52356 -73.0089 3.56866
RightUpLeg  -22.5861 -16.483 -8.0237
RightLeg  8.54266 -11.754 1.99429
RightFoot  8.3671 -0.249987 1.67082
RightToes  -1.81608e-008 0 -3.6325e-017
Spine  8.87093 -5.54009 -19.0326
Spine1  -2.9251 -9.52498 18.3739
HEad  -4.90548 -7.77411 0.135453
LeftShoulder1  -0.685344 5.51903 -27.7782
LeftArm  -9.30904 -11.6557 -52.996
LeftForeArm  23.8895 -4.88155 -4.97378
LeftHand  -0.00569 7.65192 1.72102
RightShoulder  -0.977149 -6.43156 26.817
RightArm  2.01414 -20.0943 40.596
RightForeArm  10.9704 10.6869 2.1948
RightHand  -0.261259 3.69299 -3.59133
LeftUpLeg  -2.19979 11.6612 14.4773
LeftLeg  -7.68754 9.36428 -0.242978
LeftFoot  6.18194 2.62707 -17.1962
LeftToes  1.81866e-011 -6.13092e-011 2.52013e-011
74
root  1.7983 38.8656 17.2574 2.98972 -72.7322 3.35944
RightUpLeg  -24.9607 -22.505 -4.4532
RightLeg  15.4117 -4.60639 -0.33385
RightFoot  3.8495 -0.324671 2.65526
RightToes  -1.81608e-008 0 -3.6325e-017
Spine  9.32394 -5.42149 -16.017
Spine1  -2.7428 -9.15596 17.3443
HEad  -6.62531 -7.62677 -1.55923
LeftShoulder1  -0.725445 5.5855 -28.6675
LeftArm  -9.45443 -11.5661 -52.9855
LeftForeArm  23.9939 -6.34369 -5.02903
LeftHand  -0.0137461 7.37885 1.50782
RightShoulder  -0.929064 -6.31273 26.492
RightArm  1.49249 -19.3223 40.2692
RightForeArm  10.8091 9.90586 1.97164
RightHand  -0.301046 3.37389 -4.22922
LeftUpLeg  -0.984384 12.16 15.8182
LeftLeg  -6.81416 8.33601 0.303174
LeftFoot  5.37162 2.6559 -18.1675
LeftToes  1.81866e-011 -6.13092e-011 2.52013e-011
75
root  1.04219 38.7641 16.8362 3.04938 -72.6014 2.84631
RightUpLeg  -25.4789 -24.0462 -2.8189
RightLeg  18.8606 -2.40532 -1.1843
RightFoot  0.753873 -0.332525 3.14397
RightToes  -1.81608e-008 0 -3.6325e-017
Spine  8.93556 -5.51584 -12.6539
Spine1  -2.04292 -8.89601 15.8273
HEad  -8.44089 -7.33169 -2.26099
LeftShoulder1  -0.538321 5.05054 -28.6173
LeftArm  -9.98975 -10.5878 -53.226
LeftForeArm  23.7919 -7.83203 -4.93746
LeftHand  -0.00200006 6.68328 2.7382
RightShoulder  -0.819855 -6.05051 25.5633
RightArm  0.767492 -18.2018 40.3321
RightForeArm  10.6807 9.31486 1.71773
RightHand  -0.308751 3.49951 -4.29797
LeftUpLeg  0.00987245 12.5847 17.002
LeftLeg  -6.26308 8.2183 0.611186
LeftFoot  5.31169 2.51291 -17.2906
LeftToes  1.81866e-011 -6.13092e-011 2.52013e-011
76
root  0.321115 38.7555 16.4273 1.62634 -71.5375 4.28467
RightUpLeg  -25.3457 -23.7198 -3.08129
RightLeg  21.3739 -3.39054 -1.69083
RightFoot  -1.45215 -0.196408 2.1668
RightToes  -1.81608e-008 0 -3.6325e-017
Spine  8.1958 -5.81141 -10.9919
Spine1  -1.65888 -9.11215 15.7625
HEad  -8.21218 -7.91139 -2.41566
LeftShoulder1  -0.492286 4.92172 -28.5267
LeftArm  -9.88476 -10.0023 -53.2766
LeftForeArm  25.1841 -8.45543 -5.08845
LeftHand  -0.0125322 6.04559 2.80441
RightShoulder  -0.748408 -5.84956 25.2365
RightArm  0.111119 -17.1814 39.3146
RightForeArm  9.30388 9.46767 1.46944
RightHand  -0.265891 4.16137 -3.50377
LeftUpLeg  0.167325 12.8772 17.3769
LeftLeg  -6.00919 9.02301 0.253911
LeftFoot  5.3886 2.25304 -15.4708
LeftToes  1.81866e-011 -6.13092e-011 2.52013e-011
77
root  -0.346982 38.8626 15.985 -1.32111 -70.9272 7.00296
RightUpLeg  -24.2899 -22.5684 -3.89781
RightLeg  22.5434 -4.70482 -2.35793
RightFoot  -3.09513 -0.159583 1.92717
RightToes  -1.81608e-008 0 -3.6325e-017
Spine  8.24913 -5.707 -10.8853
Spine1  -1.93441 -8.94299 15.6781
HEad  -7.87344 -8.50651 -1.90094
LeftShoulder1  -0.573193 5.13164 -29.0535
LeftArm  -9.93708 -9.13485 -52.8434
LeftForeArm  27.9592 -9.67412 -5.0865
LeftHand  -0.0341679 4.94901 2.42259
RightShoulder  -0.853676 -6.13694 25.821
RightArm  0.660913 -14.8122 37.1872
RightForeArm  8.03764 9.89176 1.66931
RightHand  -0.26793 3.40073 -3.77956
LeftUpLeg  0.201871 12.8867 17.0209
LeftLeg  -5.75559 12.4643 -0.174111
LeftFoot  4.06049 1.97799 -14.7207
LeftToes  1.81866e-011 -6.13092e-011 2.52013e-011
78
root  -0.990669 39.0459 15.5794 -3.38358 -70.7062 8.94086
RightUpLeg  -22.7759 -21.1283 -4.30352
RightLeg  22.2236 -6.04235 -2.92478
RightFoot  -4.17551 -0.145758 1.87298
RightToes  -1.81608e-008 0 -3.6325e-017
Spine  7.532 -5.6698 -10.865
Spine1  -1.34828 -8.89493 15.5236
HEad  -7.94152 -9.12452 -1.62026
LeftShoulder1  -0.513426 4.94815 -29.3787
LeftArm  -9.80978 -7.45832 -51.8967
LeftForeArm  28.147 -11.5559 -5.01316
LeftHand  -0.0365626 4.87438 2.78135
RightShoulder  -0.804404 -6.0438 25.0191
RightArm  -0.310673 -12.7202 36.7693
RightForeArm  8.05734 11.2552 1.56048
RightHand  -0.273244 3.66136 -3.7653
LeftUpLeg  -0.353113 12.4311 16.3815
LeftLeg  -5.65892 13.6317 0.173133
LeftFoot  3.19241 1.58528 -12.563
LeftToes  1.81866e-011 -6.13092e-011 2.52013e-011
79
root  -1.55828 39.2081 15.2409 -5.06192 -70.3408 10.4072
RightUpLeg  -21.2728 -20.9835 -4.48973
RightLeg  21.7082 -6.45521 -3.04106
RightFoot  -5.07666 -0.12294 1.61227
RightToes  -1.81608e-008 0 -3.6325e-017
Spine  7.0371 -5.71393 -10.4291
Spine1  -1.07355 -8.86847 15.2202
HEad  -7.78402 -10.2724 -0.930599
LeftShoulder1  -0.490966 4.89674 -29.079
LeftArm  -10.1554 -5.94172 -50.9931
LeftForeArm  27.5833 -11.995 -4.85302
LeftHand  -0.0487124 4.37915 3.24481
RightShoulder  -0.712552 -5.80494 24.2883
RightArm  -1.82549 -11.4427 36.6286
RightForeArm  7.39032 13.5596 1.55906
RightHand  -0.276268 4.13007 -3.63513
LeftUpLeg  -1.19252 12.3602 15.9293
LeftLeg  -5.82056 13.8837 -0.138397
LeftFoot  2.97427 1.64642 -13.2065
LeftToes  1.81866e-011 -6.13092e-011 2.52013e-011
